# xmcd
#
# Track frame offsets:
#	150
#	17643
#	36890
#	54608
#	74888
#	93488
#	106208
#	119600
#	134438
#	154345
#
# Disc length: 2233 seconds
#
# Revision: 1
# Processed by: cddbd v1.5.1PL0 Copyright (c) Steve Scherf et al.
# Submitted via: CDex 1.50Beta5
#
DISCID=9208b70a
DTITLE=クリスタル・ウインド - クリスタル・ウインド
DYEAR=1900
DGENRE=Classical
TTITLE0=別れの曲
TTITLE1=エリーゼのために
TTITLE2=カノン
TTITLE3=G線上のアリア
TTITLE4=雨だれ
TTITLE5=乙女の祈り
TTITLE6=白鳥
TTITLE7=ユモレスク
TTITLE8=夜想曲
TTITLE9=ジムノペティ第1番
EXTD=
EXTT0=
EXTT1=
EXTT2=
EXTT3=
EXTT4=
EXTT5=
EXTT6=
EXTT7=
EXTT8=
EXTT9=
PLAYORDER=
